HIERARCHY
ROOT hip
{
  OFFSET 0.0 0.0 0.0
  CHANNELS 6 Xposition Yposition Zposition Zrotation Yrotation Xrotation
  JOINT torso
  {
    OFFSET 0.0 0.0 0.0
    CHANNELS 3 Zrotation Xrotation Yrotation
    JOINT neck
    {
      OFFSET -31.42098999999993 328.8025209999999 74.3554680000002
      CHANNELS 3 Zrotation Xrotation Yrotation
      JOINT head
      {
        OFFSET 3.3519900000001144 303.81732099999994 206.53942900000015
        CHANNELS 3 Zrotation Xrotation Yrotation
        End Site
        {
          OFFSET 0.0 0.0 0.0
        }
      }
    }
    JOINT left_collar
    {
      OFFSET -31.42098999999993 328.8025209999999 74.3554680000002
      CHANNELS 3 Zrotation Xrotation Yrotation
      JOINT left_upper_arm
      {
        OFFSET -124.490479 -8.162841999999841 8.226441000000023
        CHANNELS 3 Zrotation Xrotation Yrotation
        JOINT left_forearm
        {
          OFFSET -253.595764 -1.5758060000000569 105.0729980000001
          CHANNELS 3 Zrotation Xrotation Yrotation
          JOINT left_hand
          {
            OFFSET -269.48803699999996 0.1478270000000066 -55.346191999999974
            CHANNELS 3 Zrotation Xrotation Yrotation
            End Site
            {
              OFFSET 0.0 0.0 0.0
            }
          }
        }
      }
    }
    JOINT right_collar
    {
      OFFSET -31.42098999999993 328.8025209999999 74.3554680000002
      CHANNELS 3 Zrotation Xrotation Yrotation
      JOINT right_upper_arm
      {
        OFFSET 162.02484099999998 0.46441600000002836 2.2303470000001653
        CHANNELS 3 Zrotation Xrotation Yrotation
        JOINT right_forearm
        {
          OFFSET 240.01246700000004 -25.835875999999985 121.34179699999959
          CHANNELS 3 Zrotation Xrotation Yrotation
          JOINT right_hand
          {
            OFFSET 252.48539699999992 18.910399999999868 -67.53466800000001
            CHANNELS 3 Zrotation Xrotation Yrotation
            End Site
            {
              OFFSET 0.0 0.0 0.0
            }
          }
        }
      }
    }
  }
}
MOTION
Frames: 19
Frame Time: 0.01
170.07934373770567 211.12613391996223 654.0254580232913 -7.428155081810264 -2.409508422082739 -27.949365219245994 0.8841542336282997 -0.990389778338396 -0.3018664244606405 -6.219614276353049 -6.763468323883997 4.494674482885242 0.0 0.0 0.0 4.336703550452852 -0.04614918079188661 3.2169908203374993 10.702799519115846 5.0867345237883885 -5.4035060914763 -3.8193707211856416 -1.092339743804971 -54.31138240521619 0.0 0.0 0.0 2.3833027760865586 -0.09205802909597091 2.5014608744645264 -35.355335276280556 4.6639627019322045 -30.488601094183835 -55.20909652553813 -8.641932507165349 14.928914471050822 0.0 0.0 0.0
171.61682824346155 211.32296981297273 652.6317763508887 -7.311281486736926 -2.3057643793797453 -28.42245465945572 0.8767073020141207 -1.005615160201845 -0.3016787706175183 -6.278875339306115 -6.812413523790699 4.538717908136491 0.0 0.0 0.0 4.329477031224251 -0.04656141694014637 3.2183171021822368 10.606002164259094 5.049721244369047 -5.477932359229157 -4.266240493214769 -1.2081224116988147 -54.0971985603399 0.0 0.0 0.0 2.37084829702181 -0.09159287189240556 2.5005528425374406 -35.35405015351032 4.665650353986732 -30.48401589701873 -55.17881060746223 -8.672438448965908 14.84906920876015 0.0 0.0 0.0
173.16605457105794 211.54452773686697 651.1953143038643 -7.191627730601578 -2.197864194832579 -28.905076284080838 0.8683268004241059 -1.019551015899179 -0.30113768777755356 -6.342131192717111 -6.867275925656936 4.585857731752707 0.0 0.0 0.0 4.322018473285637 -0.046945361241628354 3.2192861841633738 10.513160638281036 5.013009462897136 -5.540256288646487 -4.709765210326499 -1.3208208024146777 -53.873901218382734 0.0 0.0 0.0 2.355988153139058 -0.090995785221164 2.4976644851920153 -35.350081626565945 4.669209081979692 -30.47366041010044 -55.14829110072189 -8.70270602606198 14.769581115516054 0.0 0.0 0.0
174.72649727069202 211.79168608258874 649.7175877348313 -7.069735515598683 -2.086017643213088 -29.39742935493201 0.8591195895485885 -1.0320731643205363 -0.30025556617420435 -6.40934841597018 -6.928240604309208 4.636084847412102 0.0 0.0 0.0 4.314655525754744 -0.04729189459583419 3.2199297550563473 10.424419900094849 4.976699972156954 -5.590399487626406 -5.149009190017601 -1.430090159490759 -53.64142954312431 0.0 0.0 0.0 2.3388213362839125 -0.09027694794468402 2.4930404938474147 -35.34310951482192 4.674519879682784 -30.457630987412276 -55.118141909452426 -8.732425057605901 14.691369383923984 0.0 0.0 0.0
176.29717341553456 212.064995188734 648.2004613889549 -6.946145798776429 -1.970462796228277 -29.89960651027134 0.8491920125797656 -1.043115966051909 -0.29905080159532627 -6.480378906529412 -6.995378807114403 4.689304732477704 0.0 0.0 0.0 4.307739997798514 -0.0475951017563166 3.2203194104167747 10.339857364981594 4.940880351145836 -5.628463406881991 -5.583032087525026 -1.5355979084978253 -53.399805704359814 0.0 0.0 0.0 2.3194641489852117 -0.0894478810781572 2.4869543857180063 -35.33284581506755 4.681456684914635 -30.436055383355967 -55.08901387836437 -8.761287678029593 14.615371111960245 0.0 0.0 0.0
177.8766335349733 212.36464342972724 646.6461360044777 -6.821392896313454 -1.851474716163959 -30.41158271126741 0.8386538792345317 -1.0526672023897723 -0.2975481763030297 -6.554965835368938 -7.068637663769356 4.745340944622977 0.0 0.0 0.0 4.301635015511159 -0.04785338191054185 3.2205728631269617 10.259480115626646 4.905624570956192 -5.6547464969216374 -6.010906990952795 -1.6370305928648061 -53.1491282217063 0.0 0.0 0.0 2.298049266888797 -0.08852110038479273 2.4796989522402146 -35.319047867540014 4.689892850964294 -30.409084836660526 -55.06159518843158 -8.788995855800177 14.542520811009478 0.0 0.0 0.0
179.4629626900639 212.6904320163093 645.0571273288714 -6.695998963807038 -1.729374018560292 -30.933207280286126 0.8276228208069235 -1.060760689717341 -0.2957790952834471 -6.632753019145355 -7.147833475099268 4.80394112034518 0.0 0.0 0.0 4.296700866230626 -0.048070488530615456 3.220858930390681 10.183225244797617 4.870993580852461 -5.669755756589771 -6.431737867038861 -1.7341000598810257 -52.88956374842257 0.0 0.0 0.0 2.2747250466505498 -0.08750980659787008 2.471577678645782 -35.30153122380268 4.69970717817321 -30.37688715806818 -55.03659908495948 -8.815268766168947 14.473728820201167 0.0 0.0 0.0
181.05379176707433 213.0417595089798 643.4362375514567 -6.5704688431836304 -1.6045343320364527 -31.464199412833608 0.8162286208506465 -1.0674673330793465 -0.2937816593505022 -6.7132973890369865 -7.232649078400189 4.864785291206356 0.0 0.0 0.0 4.293280300358359 -0.048256413450490095 3.221400689192092 10.110963143737903 4.837036733954266 -5.674211822181067 -6.844675975868049 -1.8265487512114087 -52.621337712258835 0.0 0.0 0.0 2.249654972515403 -0.08642762338336264 2.4628975594837437 -35.28018160624131 4.710789162066858 -30.33964129878111 -55.01474895672922 -8.839849654051756 14.409859441649994 0.0 0.0 0.0
182.64631890768942 213.41761674258663 641.7865199671443 -6.445285342656761 -1.4773877394317978 -32.00414746720281 0.804617194045092 -1.0728853764791715 -0.2916005773141106 -6.796084159529915 -7.3226356389293805 4.927496280773437 0.0 0.0 0.0 4.291684125804812 -0.04842804434839734 3.222476358730881 10.042503416186323 4.803793856157006 -5.6690469898231015 -7.248934883059619 -1.9141539834763277 -52.34472419814362 0.0 0.0 0.0 2.2230170961085505 -0.08528838833730569 2.453963661217084 -35.25496532486439 4.723043154438991 -30.29753376261887 -54.99676096916864 -8.86251180708888 14.3517097577785 0.0 0.0 0.0
184.23734084919192 213.81659253387934 640.1112379741136 -6.320905065542715 -1.3484274350067096 -32.552512204489695 0.7929539509871313 -1.0771305859396294 -0.28928693185577026 -6.880544216190141 -7.417219035774553 4.991651883054915 0.0 0.0 0.0 4.292177927264076 -0.048609541269867336 3.2244176470340777 9.977602978021135 4.771297719987389 -5.655395867917174 -7.643803710452293 -1.996731135109444 -52.060035411002936 0.0 0.0 0.0 2.195003311485923 -0.08410599696231244 2.445075642166636 -35.225937536294694 4.736391198324087 -30.250757077940438 -54.983324690818186 -8.88306329399701 14.299990145324719 0.0 0.0 0.0
185.82329380108024 214.23689020028814 638.4138197533954 -6.197754928153976 -1.2182070629459223 -33.10863400241833 0.7814263492968566 -1.0803270127086486 -0.2868978187944746 -6.966073162241494 -7.5157108091368885 5.056798460414476 0.0 0.0 0.0 4.294970671313876 -0.04883239814848553 3.227605504009369 9.9159758053131 4.739576661797949 -5.634578706992163 -8.028658293196246 -2.0741356884875986 -51.76761100993074 0.0 0.0 0.0 2.1658183371004025 -0.08289429543624172 2.4365262740965785 -35.19324781120328 4.750774377420297 -30.199510397906792 -54.97508240482747 -8.901350206592905 14.255307448943677 0.0 0.0 0.0
187.4003033193195 214.67635455977404 636.6978101641856 -6.076229503263996 -1.0873364814431792 -33.67174392207103 0.7702454843044568 -1.0825988456403721 -0.2844958771546368 -7.052051395615667 -7.617323435590344 5.122465540132511 0.0 0.0 0.0 4.300205831551526 -0.049135178181338654 3.2324634418502116 9.857303733257048 4.70865708159285 -5.608077824594984 -8.40296996412312 -2.1462641134806435 -51.467807563012826 0.0 0.0 0.0 2.135678339549321 -0.08166701580105551 2.428601858554469 -35.1571426121364 4.766152600674197 -30.14400217902285 -54.972608008123785 -8.917258250577357 14.218151649098825 0.0 0.0 0.0
188.96424243901703 215.13250871122392 634.9668215000295 -5.956689282052297 -0.9564739893313311 -34.240978362702705 0.759646600704587 -1.0840636942081248 -0.2821487164357924 -7.137864529330692 -7.721189513114597 5.1881809333448725 0.0 0.0 0.0 4.30795551066486 -0.04956293359813424 3.2394487805569137 9.80124768703831 4.678565589564169 -5.5775079133571195 -8.766311772348516 -2.2130536206378437 -51.16098833480912 0.0 0.0 0.0 2.1048092019635605 -0.08043774621131257 2.4215843044342136 -35.117964442975904 4.782502815913318 -30.084454798474603 -54.976386525622644 -8.930712635207438 14.188886688457883 0.0 0.0 0.0
190.51079708192532 215.60259952268137 633.2244847754722 -5.8394598595857845 -0.8263153280204215 -34.81539688325807 0.7498884044249151 -1.084827469456689 -0.27992822877454665 -7.222923419799563 -7.8263842717973775 5.2534858494674985 0.0 0.0 0.0 4.318217868697868 -0.05016633756953682 3.2490423182351136 9.747458736049191 4.649330606304114 -5.5445813702827635 -9.11836205697311 -2.274480856767455 -50.847513588022466 0.0 0.0 0.0 2.0734444916436376 -0.07921992803840062 2.415754515433434 -35.07614758867691 4.799815717412581 -30.02111088514281 -54.98679529868068 -8.941676306357671 14.167745921313688 0.0 0.0 0.0
192.03553747367124 216.0836503999344 631.4744031459113 -5.724831932621657 -0.6975800058811948 -35.39400260013936 0.7412510370977469 -1.084980873563916 -0.27790975343308044 -7.306683040155969 -7.931950675063727 5.317949441421238 0.0 0.0 0.0 4.330917992658207 -0.05100056787143016 3.2617369976958 9.69558840095278 4.620983277695361 -5.511070078167294 -9.458905420872888 -2.3305596577917513 -50.52773156225228 0.0 0.0 0.0 2.041823217854806 -0.07802687069164126 2.4113966131191273 -35.03221051584719 4.818091089624954 -29.9542410351738 -55.00408786824659 -8.950146654584763 14.154832420049821 0.0 0.0 0.0
193.53399401119285 216.57251959696487 629.7201089107712 -5.61306188394389 -0.5709956687165765 -35.97576440271713 0.7340325718115559 -1.0845973868130994 -0.2761710475919862 -7.388659441646994 -8.036926238949771 5.381182202304384 0.0 0.0 0.0 4.345912158570874 -0.05212398881097255 3.278026139468701 9.645297710340378 4.593557624440973 -5.478765257274454 -9.787831262738255 -2.381338008577259 -50.20197029119863 0.0 0.0 0.0 2.0101874981033228 -0.07687177435947219 2.4088023992132053 -34.98674515549865 4.837332012403669 -29.88415246408727 -55.02838148689941 -8.95615091166466 14.150124116738944 0.0 0.0 0.0
195.00173574930162 217.0659620921456 627.9650253243036 -5.50437264382015 -0.4472813502726137 -36.559640080319234 0.7285439213470728 -1.0837325596032101 -0.2747910168187748 -7.46844409416473 -8.140370580794515 5.442847650532537 0.0 0.0 0.0 4.36299524647492 -0.053596679895271025 3.2983917372674965 9.59626460311362 4.567089904932409 -5.449437043231055 -10.105130111795113 -2.426894384279983 -49.87053044057455 0.0 0.0 0.0 1.978780263165041 -0.07576775078213334 2.408275367906589 -34.9404034301391 4.857538229072506 -29.811198038698276 -55.05964906644893 -8.959740518012023 14.153483500942139 0.0 0.0 0.0
196.43444946366304 217.56069291691628 626.2124341543469 -5.398954483595055 -0.3271304757781367 -37.144599349655856 0.7251021255668436 -1.08242437716791 -0.2738481724437034 -7.545714991133538 -8.241392628778591 5.502671792921818 0.0 0.0 0.0 4.3819108846236645 -0.05547885705686022 3.323293175841551 9.548189403684791 4.541617225150414 -5.424795320376828 -10.410888060257959 -2.4673336618780732 -49.53367939183341 0.0 0.0 0.0 1.9478431125164881 -0.07472783268405972 2.4101335534551827 -34.89388149689913 4.8786990314780105 -29.735785060199163 -55.09771619077826 -8.960984784729872 14.164671373925643 0.0 0.0 0.0
197.82801712441804 218.05344980559516 624.4654496034144 -5.296965409672674 -0.2111944547333435 -37.72964572857521 0.724022091773606 -1.0806944674222345 -0.2734188088711789 -7.620244042591254 -8.339176395810986 5.560449944575239 0.0 0.0 0.0 4.402363737690835 -0.05782922623617462 3.3531565586029095 9.50079825081007 4.517175478793691 -5.4064530817709455 -10.70527960239019 -2.5027827938922798 -49.19164684593126 0.0 0.0 0.0 1.91761437849297 -0.07376496351757222 2.414710559359191 -34.847902242391875 4.900786038418127 -29.65838314510009 -55.14226359382424 -8.959964179544157 14.183364000220925 0.0 0.0 0.0
